<svg
  xmlns="http://www.w3.org/2000/svg"
  viewBox="0 0 24 24"
  width="58px"
  height="58px"
  fill="none"
>
  <path
    d="M3 4H5H21"
    stroke="#000"
    stroke-width="2"
    stroke-linecap="round"
    stroke-linejoin="round"
  />
  <path
    d="M5 4L6.68761 18.1424C6.74601 18.611 7.05418 19.0086 7.50598 19.1888C7.95778 19.369 8.45798 19.3085 8.8336 19.022L14.6896 14.612C15.0432 14.338 15.4764 14.338 15.8301 14.612L21.6666 19.012C22.0422 19.2985 22.5424 19.359 22.9942 19.1788C23.446 18.9986 23.7542 18.601 23.8126 18.1324L25.5 4H5Z"
    fill="#4CAF50"
    stroke="#000"
    stroke-width="2"
    stroke-linecap="round"
    stroke-linejoin="round"
  />
  <circle cx="9" cy="20" r="1" fill="#FF5722" />
  <circle cx="20" cy="20" r="1" fill="#FF5722" />
  <path
    d="M9 8H11M9 12H11M13 8H15M13 12H15"
    stroke="#000"
    stroke-width="2"
    stroke-linecap="round"
    stroke-linejoin="round"
  />
</svg>
